# File created by Blade
# Date/Time:  Wed Apr 08 14:55:03 2015
# Frame Rate: 120.000 fps
#------------------------------------------------------
:FULLY-SPECIFIED
:DEGREES
1198
root 2.816699 31.511977 -18.576001 16.730674 12.882276 -5.916208
Spine -7.869829 -1.487494 1.662781
Head 1.192029 -10.139716 1.416370
LeftShoulder -21.372541 49.708660 5.123212
LeftArm 50.070791 11.668238 -73.104222
LeftForeArm 0.764391 -0.000000 114.253891
LeftHand 2.820540 -0.000000 -8.195788
LeftHandThumb1 -26.253704 0.000000 33.147579
RightShoulder -4.000381 -8.242740 -18.713660
RightArm 20.504785 -37.023012 76.235108
RightForeArm 1.063207 -0.000000 108.925187
RightHand 7.326578 -0.000000 5.180324
RightHandThumb1 -24.326973 -0.000000 -32.862282
LeftUpLeg -48.559825 2.664338 13.615526
LeftLeg 29.167439 -0.000000 -0.000000
LeftFoot 0.197027 20.114561 -14.034378
LeftToeBase -5.072077 -0.000000 0.000000
RightUpLeg -4.629010 -2.474556 6.706769
RightLeg -0.557054 -0.000000 0.000000
RightFoot -20.598123 -15.754745 11.537024
RightToeBase 1.269940 -0.000000 -0.000000
1199
root 2.848911 31.506026 -18.576618 16.751021 13.227393 -5.916415
Spine -7.877454 -1.535017 1.660109
Head 1.003738 -10.307893 1.412955
LeftShoulder -21.254285 49.586456 5.287953
LeftArm 50.218224 11.582826 -73.022519
LeftForeArm 0.908525 0.000000 114.395683
LeftHand 2.430612 -0.000000 -8.675875
LeftHandThumb1 -26.253704 0.000000 33.147579
RightShoulder -4.018742 -8.099282 -18.781229
RightArm 20.547158 -36.793497 76.078648
RightForeArm 1.166455 -0.000000 109.130391
RightHand 7.301865 -0.000000 5.079259
RightHandThumb1 -24.326973 -0.000000 -32.862282
LeftUpLeg -48.587510 2.799695 13.488059
LeftLeg 29.221981 -0.000000 -0.000000
LeftFoot -0.060416 20.391942 -13.697460
LeftToeBase -5.170158 -0.000000 0.000000
RightUpLeg -4.620158 -2.514332 6.719419
RightLeg -0.592674 -0.000000 0.000000
RightFoot -20.706597 -15.969993 11.696249
RightToeBase 1.360163 -0.000000 -0.000000
1200
root 2.883597 31.498158 -18.571683 16.770098 13.600467 -5.922310
Spine -7.888442 -1.613745 1.660898
Head 0.806058 -10.463019 1.439033
LeftShoulder -21.183944 49.486478 5.429020
LeftArm 50.401688 11.493294 -72.981316
LeftForeArm 1.001591 -0.000000 114.539339
LeftHand 1.984410 -0.000000 -9.260000
LeftHandThumb1 -26.253704 0.000000 33.147579
RightShoulder -4.015335 -7.952593 -18.830523
RightArm 20.585143 -36.539524 75.936926
RightForeArm 1.276436 0.000000 109.328236
RightHand 7.150025 -0.000000 5.215949
RightHandThumb1 -24.326973 -0.000000 -32.862282
LeftUpLeg -48.633805 2.912354 13.373489
LeftLeg 29.304696 -0.000000 -0.000000
LeftFoot -0.236734 20.545107 -13.445729
LeftToeBase -5.187621 -0.000000 0.000000
RightUpLeg -4.579009 -2.575588 6.740947
RightLeg -0.677470 -0.000000 0.000000
RightFoot -20.781433 -16.198542 11.829689
RightToeBase 1.358895 -0.000000 -0.000000
1201
root 2.921139 31.488568 -18.564921 16.797627 13.990584 -5.952098
Spine -7.907288 -1.679681 1.696904
Head 0.584125 -10.613351 1.451344
LeftShoulder -21.129131 49.363520 5.548273
LeftArm 50.609524 11.410563 -72.937469
LeftForeArm 1.296943 0.000000 114.668131
LeftHand 1.557120 -0.000000 -9.846055
LeftHandThumb1 -26.253704 0.000000 33.147579
RightShoulder -3.993675 -7.781609 -18.888725
RightArm 20.563514 -36.253712 75.839030
RightForeArm 1.384861 -0.000000 109.545034
RightHand 7.047160 -0.000000 5.749790
RightHandThumb1 -24.326973 -0.000000 -32.862282
LeftUpLeg -48.707548 3.029500 13.276790
LeftLeg 29.394365 -0.000000 -0.000000
LeftFoot -0.263357 20.633434 -13.242028
LeftToeBase -5.509521 -0.000000 0.000000
RightUpLeg -4.553433 -2.674914 6.786899
RightLeg -0.746968 -0.000000 0.000000
RightFoot -20.862858 -16.365719 11.992543
RightToeBase 1.336302 -0.000000 -0.000000
1202
root 2.962993 31.476736 -18.551606 16.820484 14.396927 -5.990015
Spine -7.940744 -1.772527 1.757035
Head 0.393863 -10.791756 1.439746
LeftShoulder -21.081453 49.248044 5.663442
LeftArm 50.787532 11.299488 -72.968917
LeftForeArm 1.606391 -0.000000 114.799035
LeftHand 1.094570 0.000000 -10.506135
LeftHandThumb1 -26.253704 0.000000 33.147579
RightShoulder -3.929857 -7.602468 -18.977740
RightArm 20.597793 -35.930881 75.705771
RightForeArm 1.264704 -0.000000 109.732399
RightHand 7.142879 -0.000000 5.514599
RightHandThumb1 -24.326973 -0.000000 -32.862282
LeftUpLeg -48.794117 3.152567 13.163400
LeftLeg 29.508702 -0.000000 -0.000000
LeftFoot -0.069159 20.641482 -12.942191
LeftToeBase -5.978848 -0.000000 0.000000
RightUpLeg -4.488663 -2.773460 6.838237
RightLeg -0.862546 -0.000000 0.000000
RightFoot -20.952995 -16.557393 12.183080
RightToeBase 1.330304 -0.000000 -0.000000
1203
root 3.010377 31.463576 -18.533949 16.874466 14.805302 -6.001149
Spine -7.997703 -1.835667 1.780278
Head 0.172500 -10.979063 1.444554
LeftShoulder -21.052096 49.106974 5.770992
LeftArm 50.983842 11.225912 -72.969822
LeftForeArm 2.001384 -0.000000 114.918270
LeftHand 0.634499 -0.000000 -11.129291
LeftHandThumb1 -26.253704 0.000000 33.147579
RightShoulder -3.908285 -7.482374 -19.042482
RightArm 20.717775 -35.622345 75.510595
RightForeArm 1.262249 0.000000 109.901794
RightHand 6.993006 -0.000000 5.606216
RightHandThumb1 -24.326973 -0.000000 -32.862282
LeftUpLeg -48.909611 3.284352 12.996778
LeftLeg 29.622951 -0.000000 -0.000000
LeftFoot 0.318693 20.605476 -12.634727
LeftToeBase -6.504296 -0.000000 0.000000
RightUpLeg -4.425629 -2.873210 6.863134
RightLeg -0.998477 -0.000000 0.000000
RightFoot -21.054010 -16.815620 12.262894
RightToeBase 1.496340 -0.000000 -0.000000
1204
root 3.059777 31.448826 -18.510797 16.923214 15.237541 -6.017501
Spine -8.054461 -1.894090 1.797494
Head -0.062869 -11.177386 1.490525
LeftShoulder -20.962030 48.986853 5.937761
LeftArm 51.169267 11.104384 -73.043744
LeftForeArm 2.227630 -0.000000 115.050237
LeftHand 0.118666 -0.000000 -11.957699
LeftHandThumb1 -26.253704 0.000000 33.147579
RightShoulder -3.893344 -7.319343 -19.084637
RightArm 20.806087 -35.317905 75.283454
RightForeArm 1.197511 -0.000000 110.073420
RightHand 6.883019 0.000000 5.732093
RightHandThumb1 -24.326973 -0.000000 -32.862282
LeftUpLeg -49.042513 3.427517 12.810201
LeftLeg 29.792764 -0.000000 -0.000000
LeftFoot 0.805816 20.458013 -12.277666
LeftToeBase -6.713120 -0.000000 0.000000
RightUpLeg -4.345735 -3.013377 6.891846
RightLeg -1.146345 -0.000000 0.000000
RightFoot -21.170551 -16.996040 12.494583
RightToeBase 1.594442 -0.000000 -0.000000
1205
root 3.115071 31.432887 -18.484402 16.991168 15.682553 -6.033290
Spine -8.127111 -1.919394 1.823447
Head -0.315272 -11.440737 1.520528
LeftShoulder -20.869508 48.869963 6.094703
LeftArm 51.389931 11.007987 -73.099319
LeftForeArm 2.710278 0.000000 115.169526
LeftHand -0.389396 -0.000000 -12.735234
LeftHandThumb1 -26.253704 0.000000 33.147579
RightShoulder -3.892799 -7.125136 -19.156021
RightArm 20.822451 -34.975611 75.158035
RightForeArm 1.142018 -0.000000 110.217127
RightHand 6.886411 0.000000 5.881288
RightHandThumb1 -24.326973 -0.000000 -32.862282
LeftUpLeg -49.211452 3.577022 12.588339
LeftLeg 29.984627 -0.000000 -0.000000
LeftFoot 1.318664 20.268931 -12.051058
LeftToeBase -6.945817 -0.000000 0.000000
RightUpLeg -4.290304 -3.237687 6.922728
RightLeg -1.273742 -0.000000 0.000000
RightFoot -21.191356 -17.090607 12.685652
RightToeBase 1.298610 -0.000000 -0.000000
1206
root 3.173978 31.415997 -18.452484 17.061074 16.114709 -6.058078
Spine -8.215434 -1.951580 1.851968
Head -0.551656 -11.667956 1.550312
LeftShoulder -20.777736 48.731032 6.266050
LeftArm 51.560173 10.908431 -73.186918
LeftForeArm 3.015288 -0.000000 115.285960
LeftHand -0.879489 -0.000000 -13.488767
LeftHandThumb1 -26.253704 0.000000 33.147579
RightShoulder -3.853112 -6.923438 -19.220266
RightArm 20.928777 -34.659331 74.905548
RightForeArm 1.226179 0.000000 110.322465
RightHand 6.936753 0.000000 5.866926
RightHandThumb1 -24.326973 -0.000000 -32.862282
LeftUpLeg -49.382644 3.764470 12.334622
LeftLeg 30.206945 -0.000000 -0.000000
LeftFoot 1.814508 20.054912 -11.761084
LeftToeBase -7.232550 -0.000000 0.000000
RightUpLeg -4.225522 -3.417804 6.954955
RightLeg -1.394065 -0.000000 0.000000
RightFoot -21.260307 -17.206058 12.872802
RightToeBase 1.237917 -0.000000 -0.000000
